<svg xmlns="http://www.w3.org/2000/svg" viewBox="0 0 1280 720" role="img" aria-labelledby="title desc">
  <title id="title">Streamline app preview</title>
  <desc id="desc">A preview of the Streamline download interface with URL input, media preview, format options, queue, and live logs.</desc>
  <rect width="1280" height="720" fill="#171615"/>
  <rect x="52" y="46" width="190" height="628" rx="8" fill="#1F1D1B" stroke="rgba(230,216,196,0.12)"/>
  <circle cx="82" cy="86" r="13" fill="#D66F45"/>
  <text x="104" y="96" fill="#FAF7EF" font-family="Georgia, serif" font-size="26" font-weight="700">Streamline</text>
  <text x="92" y="122" fill="#D66F45" font-family="Consolas, monospace" font-size="10" letter-spacing="2">BY FLAMEONLABS</text>
  <text x="92" y="140" fill="#716D63" font-family="Consolas, monospace" font-size="10" letter-spacing="2">MEDIA DOWNLOADER</text>
  <rect x="72" y="178" width="150" height="38" rx="6" fill="rgba(214,111,69,0.11)" stroke="rgba(214,111,69,0.3)"/>
  <text x="100" y="202" fill="#D66F45" font-family="Arial, sans-serif" font-size="14">Download</text>
  <text x="100" y="254" fill="#AAA49A" font-family="Arial, sans-serif" font-size="14">History</text>
  <text x="100" y="300" fill="#AAA49A" font-family="Arial, sans-serif" font-size="14">Settings</text>
  <rect x="282" y="46" width="944" height="628" rx="8" fill="#171615" stroke="rgba(230,216,196,0.12)"/>
  <text x="326" y="102" fill="#FAF7EF" font-family="Georgia, serif" font-size="30" font-weight="700">Download</text>
  <line x1="326" y1="124" x2="1184" y2="124" stroke="rgba(230,216,196,0.12)"/>
  <rect x="326" y="166" width="536" height="56" rx="7" fill="#242220" stroke="rgba(230,216,196,0.13)"/>
  <text x="352" y="201" fill="#AAA49A" font-family="Consolas, monospace" font-size="17">https://video.example/watch...</text>
  <rect x="884" y="166" width="258" height="56" rx="7" fill="#D66F45"/>
  <text x="973" y="201" fill="#FFFFFF" font-family="Arial, sans-serif" font-size="17" font-weight="700">Download</text>
  <rect x="326" y="258" width="536" height="300" rx="8" fill="#1F1D1B" stroke="rgba(214,111,69,0.24)"/>
  <rect x="348" y="280" width="492" height="188" rx="7" fill="#2E2B28"/>
  <rect x="372" y="304" width="250" height="20" rx="4" fill="#D66F45" opacity="0.82"/>
  <rect x="372" y="340" width="360" height="13" rx="3" fill="#716D63"/>
  <rect x="372" y="368" width="312" height="13" rx="3" fill="#716D63"/>
  <rect x="372" y="396" width="230" height="13" rx="3" fill="#716D63"/>
  <circle cx="786" cy="420" r="28" fill="#D66F45" opacity="0.95"/>
  <polygon points="778,405 778,435 802,420" fill="#FFFFFF"/>
  <text x="348" y="510" fill="#FAF7EF" font-family="Arial, sans-serif" font-size="20" font-weight="700">Preview, formats, queue, and logs</text>
  <text x="348" y="538" fill="#AAA49A" font-family="Arial, sans-serif" font-size="15">Everything stays on localhost.</text>
  <rect x="884" y="258" width="258" height="86" rx="8" fill="#1F1D1B" stroke="rgba(230,216,196,0.12)"/>
  <text x="904" y="290" fill="#FAF7EF" font-family="Arial, sans-serif" font-size="16" font-weight="700">Best quality</text>
  <text x="904" y="318" fill="#AAA49A" font-family="Arial, sans-serif" font-size="13">Highest video + audio</text>
  <rect x="884" y="360" width="258" height="86" rx="8" fill="#1F1D1B" stroke="rgba(230,216,196,0.12)"/>
  <text x="904" y="392" fill="#FAF7EF" font-family="Arial, sans-serif" font-size="16" font-weight="700">Subtitles + metadata</text>
  <text x="904" y="420" fill="#AAA49A" font-family="Arial, sans-serif" font-size="13">Power options exposed</text>
  <rect x="884" y="478" width="258" height="104" rx="8" fill="#0F0E0D" stroke="rgba(214,111,69,0.26)"/>
  <text x="904" y="510" fill="#E8A07D" font-family="Consolas, monospace" font-size="13">[download] 48.2% at 5.3MiB/s</text>
  <text x="904" y="538" fill="#716D63" font-family="Consolas, monospace" font-size="13">[Merger] Merging formats</text>
  <text x="904" y="566" fill="#5EBE78" font-family="Consolas, monospace" font-size="13">Complete</text>
</svg>
