<svg xmlns="http://www.w3.org/2000/svg" viewBox="0 0 1280 720" role="img" aria-labelledby="title desc">
  <title id="title">Streamline app preview</title>
  <desc id="desc">A preview of the Streamline download interface with URL input, media preview, format options, queue, and live logs.</desc>
  <rect width="1280" height="720" fill="#141414"/>
  <rect x="52" y="46" width="190" height="628" rx="8" fill="#191817" stroke="rgba(255,255,255,0.08)"/>
  <text x="92" y="96" fill="#e8e3db" font-family="Arial, sans-serif" font-size="26" font-weight="700">Streamline</text>
  <text x="92" y="122" fill="#756f69" font-family="Arial, sans-serif" font-size="12" letter-spacing="2">MEDIA DOWNLOADER</text>
  <rect x="72" y="168" width="150" height="38" rx="6" fill="rgba(212,196,166,0.09)" stroke="rgba(212,196,166,0.24)"/>
  <text x="100" y="192" fill="#d4c4a6" font-family="Arial, sans-serif" font-size="14">Download</text>
  <text x="100" y="244" fill="#a69d93" font-family="Arial, sans-serif" font-size="14">History</text>
  <text x="100" y="290" fill="#a69d93" font-family="Arial, sans-serif" font-size="14">Settings</text>
  <rect x="282" y="46" width="944" height="628" rx="8" fill="#171615" stroke="rgba(255,255,255,0.08)"/>
  <text x="326" y="102" fill="#e8e3db" font-family="Arial, sans-serif" font-size="30" font-weight="700">Download</text>
  <line x1="326" y1="124" x2="1184" y2="124" stroke="rgba(255,255,255,0.08)"/>
  <rect x="326" y="166" width="536" height="56" rx="7" fill="#20201f" stroke="rgba(255,255,255,0.09)"/>
  <text x="352" y="201" fill="#a69d93" font-family="Consolas, monospace" font-size="17">https://video.example/watch...</text>
  <rect x="884" y="166" width="258" height="56" rx="7" fill="#d4c4a6"/>
  <text x="973" y="201" fill="#17130f" font-family="Arial, sans-serif" font-size="17" font-weight="700">Download</text>
  <rect x="326" y="258" width="536" height="300" rx="8" fill="#201f1e" stroke="rgba(212,196,166,0.18)"/>
  <rect x="348" y="280" width="492" height="188" rx="7" fill="#302d29"/>
  <rect x="372" y="304" width="250" height="20" rx="4" fill="#d4c4a6" opacity="0.75"/>
  <rect x="372" y="340" width="360" height="13" rx="3" fill="#756f69"/>
  <rect x="372" y="368" width="312" height="13" rx="3" fill="#756f69"/>
  <rect x="372" y="396" width="230" height="13" rx="3" fill="#756f69"/>
  <circle cx="786" cy="420" r="28" fill="#d4c4a6" opacity="0.9"/>
  <polygon points="778,405 778,435 802,420" fill="#17130f"/>
  <text x="348" y="510" fill="#e8e3db" font-family="Arial, sans-serif" font-size="20" font-weight="700">Preview, formats, queue, and logs</text>
  <text x="348" y="538" fill="#a69d93" font-family="Arial, sans-serif" font-size="15">Everything stays on localhost.</text>
  <rect x="884" y="258" width="258" height="86" rx="8" fill="#201f1e" stroke="rgba(255,255,255,0.08)"/>
  <text x="904" y="290" fill="#e8e3db" font-family="Arial, sans-serif" font-size="16" font-weight="700">Best quality</text>
  <text x="904" y="318" fill="#a69d93" font-family="Arial, sans-serif" font-size="13">Highest video + audio</text>
  <rect x="884" y="360" width="258" height="86" rx="8" fill="#201f1e" stroke="rgba(255,255,255,0.08)"/>
  <text x="904" y="392" fill="#e8e3db" font-family="Arial, sans-serif" font-size="16" font-weight="700">Subtitles + metadata</text>
  <text x="904" y="420" fill="#a69d93" font-family="Arial, sans-serif" font-size="13">Power options exposed</text>
  <rect x="884" y="478" width="258" height="104" rx="8" fill="#111" stroke="rgba(212,196,166,0.18)"/>
  <text x="904" y="510" fill="#d4c4a6" font-family="Consolas, monospace" font-size="13">[download] 48.2% at 5.3MiB/s</text>
  <text x="904" y="538" fill="#756f69" font-family="Consolas, monospace" font-size="13">[Merger] Merging formats</text>
  <text x="904" y="566" fill="#10b981" font-family="Consolas, monospace" font-size="13">Complete</text>
</svg>
