<svg xmlns="http://www.w3.org/2000/svg" viewBox="0 0 64 64" fill="none">
  <rect width="64" height="64" rx="16" fill="#171615"/>
  <path d="M32 12 C25 20, 19 28, 19 37 C19 45, 25 52, 32 52 C39 52, 45 45, 45 37 C45 31, 42 25, 38 19"
        stroke="#D66F45" stroke-width="4.5" stroke-linecap="round" stroke-linejoin="round"/>
  <path d="M32 22 C28.5 27, 26 31.5, 26 37 C26 41.5, 28.5 45.5, 32 45.5 C35.5 45.5, 38 41.5, 38 37 C38 33.5, 36.5 30, 35 27"
        stroke="#E8A07D" stroke-width="3.25" stroke-linecap="round" stroke-linejoin="round"/>
  <line x1="22" y1="37" x2="42" y2="37" stroke="#FAF7EF" stroke-width="2.5" stroke-linecap="round"/>
  <line x1="32" y1="37" x2="32" y2="48" stroke="#FAF7EF" stroke-width="2.5" stroke-linecap="round"/>
  <circle cx="32" cy="37" r="3.5" fill="#D66F45"/>
  <circle cx="32" cy="37" r="1.7" fill="#FAF7EF"/>
</svg>
